<svg width="1305.902" height="143.251" viewBox="0 0 1305.902 143.251" xmlns="http://www.w3.org/2000/svg">
	<g id="svgGroup" stroke-linecap="round" fill-rule="evenodd" font-size="9pt" stroke="#000" stroke-width="0.25mm" fill="none" style="stroke:#000;stroke-width:0.25mm;fill:none">
		<path d="M 97.2 106.501 L 84.15 111.751 L 72.45 81.751 L 23.85 81.751 L 12.15 111.451 L 0 106.501 L 41.1 5.251 L 56.7 5.251 L 97.2 106.501 Z M 48.15 19.351 L 28.35 69.751 L 67.8 69.751 L 48.15 19.351 Z" id="0" vector-effect="non-scaling-stroke"/>
		<path d="M 109.95 82.951 L 109.95 32.251 L 123.45 32.251 L 123.45 81.151 Q 123.45 87.254 125.185 91.455 A 15.204 15.204 0 0 0 127.35 95.176 A 12.606 12.606 0 0 0 135.02 99.707 A 19.21 19.21 0 0 0 138.75 100.051 Q 144.9 100.051 150.675 97.576 Q 156.45 95.101 160.95 90.901 L 160.95 32.251 L 174.45 32.251 L 174.45 90.001 A 23.402 23.402 0 0 0 174.602 92.781 Q 175.1 96.926 177.225 98.476 Q 180 100.501 183.3 100.501 L 180.45 111.001 A 26.464 26.464 0 0 1 174.141 110.307 Q 165.692 108.23 163.21 99.934 A 20.004 20.004 0 0 1 163.2 99.901 Q 157.95 105.301 151.05 108.676 Q 144.15 112.051 136.2 112.051 Q 129.45 112.051 123.45 109.201 A 21.661 21.661 0 0 1 115.185 102.243 A 27.4 27.4 0 0 1 113.7 99.976 A 24.359 24.359 0 0 1 111.203 93.836 Q 110.42 90.881 110.126 87.368 A 53.058 53.058 0 0 1 109.95 82.951 Z" id="1" vector-effect="non-scaling-stroke"/>
		<path d="M 204.3 83.401 L 204.3 46.801 L 190.8 46.801 L 190.8 35.101 L 204.6 35.101 L 207.45 10.501 L 217.8 10.501 L 217.8 35.101 L 239.4 35.101 L 239.4 46.801 L 217.8 46.801 L 217.8 84.451 Q 217.8 93.151 221.475 96.601 Q 225.15 100.051 230.25 100.051 Q 234 100.051 237.375 98.851 A 38.599 38.599 0 0 0 242.142 96.798 A 34.151 34.151 0 0 0 243.6 96.001 L 247.35 106.801 Q 245.311 108.024 242.302 109.213 A 65.048 65.048 0 0 1 239.25 110.326 Q 234.15 112.051 228.6 112.051 A 27.49 27.49 0 0 1 220.827 111.007 A 20.901 20.901 0 0 1 210.825 104.626 Q 205.361 98.409 204.473 87.722 A 52.166 52.166 0 0 1 204.3 83.401 Z" id="2" vector-effect="non-scaling-stroke"/>
		<path d="M 277.742 110.042 A 40.821 40.821 0 0 0 290.7 112.051 A 46.089 46.089 0 0 0 294.112 111.926 A 37.886 37.886 0 0 0 310.575 106.951 Q 319.35 101.851 324.45 92.626 A 39.383 39.383 0 0 0 328.429 81.914 A 51.276 51.276 0 0 0 329.55 70.951 A 51.813 51.813 0 0 0 328.822 62.088 A 38.692 38.692 0 0 0 324.375 49.426 Q 319.2 40.351 310.425 35.401 A 37.273 37.273 0 0 0 303.463 32.36 A 41.607 41.607 0 0 0 290.7 30.451 A 46.987 46.987 0 0 0 288.33 30.51 A 39.254 39.254 0 0 0 270.9 35.401 Q 262.05 40.351 256.95 49.501 A 39.034 39.034 0 0 0 252.826 60.886 A 52.509 52.509 0 0 0 251.85 71.251 A 52.23 52.23 0 0 0 252.247 77.781 A 41.176 41.176 0 0 0 256.875 92.476 Q 261.9 101.701 270.75 106.876 A 36.839 36.839 0 0 0 277.742 110.042 Z M 290.7 100.051 A 28.112 28.112 0 0 0 298.539 99.015 A 21.001 21.001 0 0 0 309.15 92.026 A 28.204 28.204 0 0 0 314.879 79.891 A 40.657 40.657 0 0 0 315.75 71.251 A 32.064 32.064 0 0 0 313.913 60.322 A 30.021 30.021 0 0 0 312.45 56.926 A 28.796 28.796 0 0 0 306.192 48.573 A 27.256 27.256 0 0 0 303.525 46.426 Q 297.9 42.451 290.7 42.451 Q 278.85 42.451 272.25 50.251 A 26.817 26.817 0 0 0 266.739 61.311 Q 265.752 65.298 265.66 69.976 A 49.304 49.304 0 0 0 265.65 70.951 Q 265.65 78.751 268.95 85.426 A 29.156 29.156 0 0 0 274.245 92.986 A 26.441 26.441 0 0 0 277.875 96.076 Q 283.5 100.051 290.7 100.051 Z" id="3" vector-effect="non-scaling-stroke"/>
		<path d="M 361.05 110.251 L 347.55 110.251 L 347.55 32.251 L 360.6 32.251 L 360.6 45.301 Q 364.8 39.001 371.25 34.726 A 25.808 25.808 0 0 1 385.053 30.464 A 31.287 31.287 0 0 1 385.95 30.451 A 31.491 31.491 0 0 1 392.576 31.11 Q 397.055 32.074 400.478 34.445 A 19.691 19.691 0 0 1 401.175 34.951 Q 407.1 39.451 409.5 46.951 Q 414.15 40.051 420.525 35.251 A 23.503 23.503 0 0 1 430.711 30.926 A 32.169 32.169 0 0 1 436.35 30.451 A 32.155 32.155 0 0 1 443.682 31.235 Q 449.061 32.494 452.794 35.777 A 19.491 19.491 0 0 1 455.325 38.476 Q 461.55 46.501 461.55 59.401 L 461.55 110.251 L 448.05 110.251 L 448.05 60.451 Q 448.05 52.351 444.3 47.326 A 11.961 11.961 0 0 0 435.58 42.382 A 16.017 16.017 0 0 0 433.95 42.301 A 17.889 17.889 0 0 0 423.811 45.492 A 23.994 23.994 0 0 0 421.425 47.326 Q 415.65 52.351 411.3 59.101 L 411.3 110.251 L 397.8 110.251 L 397.8 60.451 Q 397.8 52.351 394.05 47.326 A 11.961 11.961 0 0 0 385.33 42.382 A 16.017 16.017 0 0 0 383.7 42.301 A 18.03 18.03 0 0 0 374.222 45.043 A 24.366 24.366 0 0 0 371.25 47.176 Q 365.4 52.051 361.05 58.651 L 361.05 110.251 Z" id="4" vector-effect="non-scaling-stroke"/>
		<path d="M 538.2 38.551 L 538.2 32.251 L 550.5 32.251 L 550.5 91.351 A 18.225 18.225 0 0 0 550.652 93.805 Q 551.037 96.627 552.394 98.057 A 4.448 4.448 0 0 0 553.275 98.776 Q 556.05 100.501 559.35 100.501 L 556.5 111.001 Q 542.455 111.001 539.255 99.871 A 20.385 20.385 0 0 1 539.1 99.301 A 31.961 31.961 0 0 1 534.436 104.44 A 42.747 42.747 0 0 1 529.725 108.076 A 22.392 22.392 0 0 1 522.295 111.231 Q 518.805 112.051 514.65 112.051 Q 504.9 112.051 496.95 107.101 A 34.42 34.42 0 0 1 485.83 95.811 A 41.884 41.884 0 0 1 484.275 93.076 Q 479.55 84.001 479.55 71.701 A 49.713 49.713 0 0 1 481.045 59.298 A 41.952 41.952 0 0 1 484.275 50.701 Q 489 41.401 497.325 35.926 A 33.446 33.446 0 0 1 514.117 30.516 A 41.082 41.082 0 0 1 516.45 30.451 A 33.876 33.876 0 0 1 523.64 31.187 A 28.055 28.055 0 0 1 528.675 32.776 A 39.003 39.003 0 0 1 535.105 36.217 A 33.154 33.154 0 0 1 538.2 38.551 Z M 537 90.301 L 537 48.451 Q 532.95 45.601 528.075 43.876 Q 523.2 42.151 517.8 42.151 A 23.887 23.887 0 0 0 510.343 43.282 A 21.035 21.035 0 0 0 505.125 45.826 A 24.451 24.451 0 0 0 497.596 53.962 A 29.944 29.944 0 0 0 496.5 56.026 A 30.995 30.995 0 0 0 493.87 64.541 A 41.517 41.517 0 0 0 493.35 71.251 Q 493.35 79.651 496.5 86.176 A 26.403 26.403 0 0 0 501.158 92.995 A 23.545 23.545 0 0 0 505.2 96.376 Q 510.75 100.051 517.65 100.051 Q 523.35 100.051 528.45 97.276 A 29.176 29.176 0 0 0 535.53 91.948 A 27.106 27.106 0 0 0 537 90.301 Z" id="5" vector-effect="non-scaling-stroke"/>
		<path d="M 580.35 83.401 L 580.35 46.801 L 566.85 46.801 L 566.85 35.101 L 580.65 35.101 L 583.5 10.501 L 593.85 10.501 L 593.85 35.101 L 615.45 35.101 L 615.45 46.801 L 593.85 46.801 L 593.85 84.451 Q 593.85 93.151 597.525 96.601 Q 601.2 100.051 606.3 100.051 Q 610.05 100.051 613.425 98.851 A 38.599 38.599 0 0 0 618.192 96.798 A 34.151 34.151 0 0 0 619.65 96.001 L 623.4 106.801 Q 621.361 108.024 618.352 109.213 A 65.048 65.048 0 0 1 615.3 110.326 Q 610.2 112.051 604.65 112.051 A 27.49 27.49 0 0 1 596.877 111.007 A 20.901 20.901 0 0 1 586.875 104.626 Q 581.411 98.409 580.523 87.722 A 52.166 52.166 0 0 1 580.35 83.401 Z" id="6" vector-effect="non-scaling-stroke"/>
		<path d="M 650.4 110.251 L 636.9 110.251 L 636.9 32.251 L 650.4 32.251 L 650.4 110.251 Z M 637.106 16.183 A 8.959 8.959 0 0 0 643.65 18.901 Q 648 18.901 650.55 16.276 A 8.665 8.665 0 0 0 652.687 12.576 A 11.266 11.266 0 0 0 653.1 9.451 A 10.887 10.887 0 0 0 653.099 9.329 A 9.091 9.091 0 0 0 650.325 2.776 Q 647.55 0.001 643.65 0.001 A 12.396 12.396 0 0 0 641.166 0.238 A 8.492 8.492 0 0 0 636.75 2.551 Q 634.2 5.101 634.2 9.451 A 8.987 8.987 0 0 0 634.938 13.079 A 9.965 9.965 0 0 0 636.975 16.051 A 11.203 11.203 0 0 0 637.106 16.183 Z" id="7" vector-effect="non-scaling-stroke"/>
		<path d="M 694.292 110.042 A 40.821 40.821 0 0 0 707.25 112.051 A 46.089 46.089 0 0 0 710.662 111.926 A 37.886 37.886 0 0 0 727.125 106.951 Q 735.9 101.851 741 92.626 A 39.383 39.383 0 0 0 744.979 81.914 A 51.276 51.276 0 0 0 746.1 70.951 A 51.813 51.813 0 0 0 745.372 62.088 A 38.692 38.692 0 0 0 740.925 49.426 Q 735.75 40.351 726.975 35.401 A 37.273 37.273 0 0 0 720.013 32.36 A 41.607 41.607 0 0 0 707.25 30.451 A 46.987 46.987 0 0 0 704.88 30.51 A 39.254 39.254 0 0 0 687.45 35.401 Q 678.6 40.351 673.5 49.501 A 39.034 39.034 0 0 0 669.376 60.886 A 52.509 52.509 0 0 0 668.4 71.251 A 52.23 52.23 0 0 0 668.797 77.781 A 41.176 41.176 0 0 0 673.425 92.476 Q 678.45 101.701 687.3 106.876 A 36.839 36.839 0 0 0 694.292 110.042 Z M 707.25 100.051 A 28.112 28.112 0 0 0 715.089 99.015 A 21.001 21.001 0 0 0 725.7 92.026 A 28.204 28.204 0 0 0 731.429 79.891 A 40.657 40.657 0 0 0 732.3 71.251 A 32.064 32.064 0 0 0 730.463 60.322 A 30.021 30.021 0 0 0 729 56.926 A 28.796 28.796 0 0 0 722.742 48.573 A 27.256 27.256 0 0 0 720.075 46.426 Q 714.45 42.451 707.25 42.451 Q 695.4 42.451 688.8 50.251 A 26.817 26.817 0 0 0 683.289 61.311 Q 682.302 65.298 682.21 69.976 A 49.304 49.304 0 0 0 682.2 70.951 Q 682.2 78.751 685.5 85.426 A 29.156 29.156 0 0 0 690.795 92.986 A 26.441 26.441 0 0 0 694.425 96.076 Q 700.05 100.051 707.25 100.051 Z" id="8" vector-effect="non-scaling-stroke"/>
		<path d="M 777.6 110.251 L 764.1 110.251 L 764.1 32.251 L 777.15 32.251 L 777.15 45.301 Q 781.35 39.001 787.875 34.726 Q 794.4 30.451 803.4 30.451 Q 816.6 30.451 823.125 38.401 Q 829.312 45.94 829.633 58.064 A 50.646 50.646 0 0 1 829.65 59.401 L 829.65 110.251 L 816.15 110.251 L 816.15 60.901 Q 816.15 52.501 812.175 47.401 A 12.869 12.869 0 0 0 802.76 42.371 A 18.092 18.092 0 0 0 801.15 42.301 A 19.683 19.683 0 0 0 790.876 45.247 A 26.03 26.03 0 0 0 788.1 47.176 Q 781.95 52.051 777.6 58.651 L 777.6 110.251 Z" id="9" vector-effect="non-scaling-stroke"/>
		<path d="M 973.95 105.751 L 960.6 112.051 L 947.55 83.551 Q 943.641 75.14 938.14 70.565 A 24.316 24.316 0 0 0 935.1 68.401 A 29.478 29.478 0 0 0 926.849 65.097 Q 923.162 64.2 918.847 63.976 A 56.771 56.771 0 0 0 915.9 63.901 L 913.65 63.901 L 913.65 110.251 L 899.4 110.251 L 899.4 5.551 A 371.851 371.851 0 0 1 910.945 4.637 A 323.669 323.669 0 0 1 914.625 4.426 A 281.911 281.911 0 0 1 924.1 4.104 A 339.402 339.402 0 0 1 930.15 4.051 Q 949.35 4.051 959.025 11.851 Q 968.68 19.635 968.7 31.9 A 31.288 31.288 0 0 1 968.7 31.951 A 29.82 29.82 0 0 1 967.724 39.781 A 22.008 22.008 0 0 1 962.175 49.576 A 31.534 31.534 0 0 1 954.789 55.092 Q 949.884 57.798 943.35 59.551 A 35.485 35.485 0 0 1 948.493 62.345 A 30.641 30.641 0 0 1 950.55 63.826 Q 953.503 66.146 956.258 69.916 A 43.941 43.941 0 0 1 956.625 70.426 A 46.667 46.667 0 0 1 958.829 73.868 Q 960.675 77.026 962.55 81.151 L 973.95 105.751 Z M 913.65 16.651 L 913.65 51.901 L 930.15 51.901 Q 940.95 51.901 947.7 47.101 Q 954.45 42.301 954.45 33.301 A 14.717 14.717 0 0 0 949.54 22.105 A 19.909 19.909 0 0 0 948.15 20.926 A 20.884 20.884 0 0 0 941.604 17.593 Q 936.731 16.051 930.15 16.051 A 298.818 298.818 0 0 0 925.599 16.084 Q 923.152 16.121 921 16.201 Q 916.95 16.351 913.65 16.651 Z" id="11" vector-effect="non-scaling-stroke"/>
		<path d="M 1053.6 76.801 L 999 76.801 A 36.132 36.132 0 0 0 1000.709 84.338 Q 1002.713 90.057 1006.65 93.901 Q 1012.95 100.051 1023.3 100.051 A 55.094 55.094 0 0 0 1029.713 99.695 A 41.363 41.363 0 0 0 1035.45 98.626 Q 1040.85 97.201 1045.8 94.951 L 1048.95 106.501 A 61.155 61.155 0 0 1 1042.448 108.94 A 77.795 77.795 0 0 1 1036.8 110.476 A 58.371 58.371 0 0 1 1029.162 111.705 A 78.038 78.038 0 0 1 1021.65 112.051 A 42.477 42.477 0 0 1 1010.031 110.543 A 31.662 31.662 0 0 1 995.025 101.326 A 35.282 35.282 0 0 1 987.217 87.016 Q 985.704 81.768 985.326 75.524 A 70.687 70.687 0 0 1 985.2 71.251 A 53.038 53.038 0 0 1 986.449 59.518 A 43.26 43.26 0 0 1 989.625 50.326 A 36.963 36.963 0 0 1 997.149 39.703 A 34.331 34.331 0 0 1 1002 35.776 Q 1009.95 30.451 1020.45 30.451 A 42.83 42.83 0 0 1 1028.655 31.195 Q 1033.671 32.174 1037.676 34.442 A 25.82 25.82 0 0 1 1039.125 35.326 Q 1046.55 40.201 1050.3 48.451 A 42.278 42.278 0 0 1 1053.939 63.247 A 50.152 50.152 0 0 1 1054.05 66.601 A 112.805 112.805 0 0 1 1053.614 76.646 A 103.961 103.961 0 0 1 1053.6 76.801 Z M 998.85 65.851 L 1041.6 65.851 A 36.533 36.533 0 0 0 1040.994 58.973 Q 1040.25 55.097 1038.594 52.061 A 18.633 18.633 0 0 0 1035.9 48.301 Q 1030.2 42.151 1020.15 42.151 A 20.37 20.37 0 0 0 1012.482 43.553 A 18.786 18.786 0 0 0 1005.75 48.226 Q 1000.05 54.301 998.85 65.851 Z" id="12" vector-effect="non-scaling-stroke"/>
		<path d="M 1088.4 143.251 L 1074.9 143.251 L 1074.9 52.201 A 16.522 16.522 0 0 0 1074.71 49.597 Q 1074.495 48.253 1074.036 47.197 A 6.307 6.307 0 0 0 1072.425 44.926 A 8.578 8.578 0 0 0 1068.24 42.943 A 11.986 11.986 0 0 0 1066.05 42.751 L 1068.9 32.251 Q 1082.7 32.251 1086.15 43.201 A 17.136 17.136 0 0 1 1087.336 41.644 Q 1088.757 39.967 1091.025 37.951 A 28.353 28.353 0 0 1 1095.077 34.975 A 38.354 38.354 0 0 1 1099.425 32.701 Q 1104.45 30.451 1110.9 30.451 Q 1119.9 30.451 1127.775 35.176 A 33.494 33.494 0 0 1 1138.542 45.627 A 41.197 41.197 0 0 1 1140.45 48.826 Q 1145.039 57.359 1145.241 69.388 A 66.412 66.412 0 0 1 1145.25 70.501 A 54.855 54.855 0 0 1 1144.195 81.497 A 42.158 42.158 0 0 1 1140.45 92.326 A 41.77 41.77 0 0 1 1134.549 101.074 A 34.544 34.544 0 0 1 1127.925 106.876 Q 1120.2 112.051 1111.2 112.051 Q 1104.3 112.051 1098.3 109.276 Q 1092.3 106.501 1088.4 102.901 L 1088.4 143.251 Z M 1088.4 52.351 L 1088.4 90.751 Q 1092.3 94.801 1097.4 97.426 Q 1102.5 100.051 1108.5 100.051 Q 1118.541 100.051 1124.875 92.275 A 26.07 26.07 0 0 0 1125.075 92.026 A 28.188 28.188 0 0 0 1130.315 81.068 Q 1131.308 77.033 1131.432 72.313 A 51.831 51.831 0 0 0 1131.45 70.951 A 42.071 42.071 0 0 0 1130.855 63.687 Q 1130.064 59.18 1128.225 55.501 Q 1125 49.051 1119.675 45.601 Q 1114.35 42.151 1107.9 42.151 A 22.112 22.112 0 0 0 1099.46 43.745 A 21.081 21.081 0 0 0 1096.275 45.376 Q 1091.868 48.122 1089.256 51.249 A 19.41 19.41 0 0 0 1088.4 52.351 Z" id="13" vector-effect="non-scaling-stroke"/>
		<path d="M 1183.892 110.042 A 40.821 40.821 0 0 0 1196.85 112.051 A 46.089 46.089 0 0 0 1200.262 111.926 A 37.886 37.886 0 0 0 1216.725 106.951 Q 1225.5 101.851 1230.6 92.626 A 39.383 39.383 0 0 0 1234.579 81.914 A 51.276 51.276 0 0 0 1235.7 70.951 A 51.813 51.813 0 0 0 1234.972 62.088 A 38.692 38.692 0 0 0 1230.525 49.426 Q 1225.35 40.351 1216.575 35.401 A 37.273 37.273 0 0 0 1209.613 32.36 A 41.607 41.607 0 0 0 1196.85 30.451 A 46.987 46.987 0 0 0 1194.48 30.51 A 39.254 39.254 0 0 0 1177.05 35.401 Q 1168.2 40.351 1163.1 49.501 A 39.034 39.034 0 0 0 1158.976 60.886 A 52.509 52.509 0 0 0 1158 71.251 A 52.23 52.23 0 0 0 1158.397 77.781 A 41.176 41.176 0 0 0 1163.025 92.476 Q 1168.05 101.701 1176.9 106.876 A 36.839 36.839 0 0 0 1183.892 110.042 Z M 1196.85 100.051 A 28.112 28.112 0 0 0 1204.689 99.015 A 21.001 21.001 0 0 0 1215.3 92.026 A 28.204 28.204 0 0 0 1221.029 79.891 A 40.657 40.657 0 0 0 1221.9 71.251 A 32.064 32.064 0 0 0 1220.063 60.322 A 30.021 30.021 0 0 0 1218.6 56.926 A 28.796 28.796 0 0 0 1212.342 48.573 A 27.256 27.256 0 0 0 1209.675 46.426 Q 1204.05 42.451 1196.85 42.451 Q 1185 42.451 1178.4 50.251 A 26.817 26.817 0 0 0 1172.889 61.311 Q 1171.902 65.298 1171.81 69.976 A 49.304 49.304 0 0 0 1171.8 70.951 Q 1171.8 78.751 1175.1 85.426 A 29.156 29.156 0 0 0 1180.395 92.986 A 26.441 26.441 0 0 0 1184.025 96.076 Q 1189.65 100.051 1196.85 100.051 Z" id="14" vector-effect="non-scaling-stroke"/>
		<path d="M 1246.95 103.951 L 1252.65 92.701 A 27.835 27.835 0 0 0 1257.365 95.89 Q 1259.698 97.156 1262.475 98.176 Q 1268.4 100.351 1275.15 100.351 A 40.669 40.669 0 0 0 1279.774 100.106 Q 1284.553 99.558 1287.502 97.778 A 11.608 11.608 0 0 0 1287.825 97.576 A 11.174 11.174 0 0 0 1290.125 95.637 A 7.578 7.578 0 0 0 1292.1 90.451 A 10.684 10.684 0 0 0 1291.629 87.23 A 9.318 9.318 0 0 0 1290.525 84.901 A 9.576 9.576 0 0 0 1289.132 83.26 Q 1287.506 81.702 1284.75 80.176 Q 1280.956 78.076 1274.102 75.67 A 155.394 155.394 0 0 0 1272.6 75.151 A 69.925 69.925 0 0 1 1266.004 72.537 Q 1259.854 69.703 1256.175 66.226 Q 1250.7 61.051 1250.7 51.901 A 18.18 18.18 0 0 1 1256.622 38.378 A 26.194 26.194 0 0 1 1258.575 36.676 Q 1266.45 30.451 1280.4 30.451 A 61.191 61.191 0 0 1 1287.069 30.797 Q 1290.642 31.189 1293.75 32.026 A 58.154 58.154 0 0 1 1299.952 34.059 A 46.666 46.666 0 0 1 1304.25 36.001 L 1300.5 47.101 A 36.792 36.792 0 0 0 1294.998 44.453 A 45.287 45.287 0 0 0 1291.275 43.201 A 37.536 37.536 0 0 0 1284.55 41.93 A 47.756 47.756 0 0 0 1279.8 41.701 Q 1274.796 41.701 1271.336 42.997 A 12.764 12.764 0 0 0 1267.95 44.851 Q 1265.261 46.943 1264.357 49.299 A 6.794 6.794 0 0 0 1263.9 51.751 A 7.381 7.381 0 0 0 1266.143 57.078 A 10.623 10.623 0 0 0 1267.05 57.901 Q 1270.148 60.409 1279.048 63.351 A 126.729 126.729 0 0 0 1279.35 63.451 A 101.629 101.629 0 0 1 1286.943 66.298 Q 1294.163 69.366 1298.3 72.794 A 22.42 22.42 0 0 1 1300.05 74.401 A 20.396 20.396 0 0 1 1305.876 88.27 A 26.842 26.842 0 0 1 1305.9 89.401 A 20.81 20.81 0 0 1 1304.307 97.675 Q 1302.357 102.227 1298.023 105.533 A 24.927 24.927 0 0 1 1297.425 105.976 Q 1290.316 111.072 1279.142 111.893 A 60.634 60.634 0 0 1 1274.7 112.051 A 59.985 59.985 0 0 1 1265.908 111.435 A 46.422 46.422 0 0 1 1258.725 109.801 Q 1251.6 107.551 1246.95 103.951 Z" id="15" vector-effect="non-scaling-stroke"/>
	</g>
</svg>